# xmcd
#
# Track frame offsets: 
#        150
#        14970
#        25286
#        42176
#        56898
#        75944
#        95577
#        110094
#        122195
#        136221
#        148779
#        163158
#        175834
#
# Disc length: 2552 seconds
#
# Revision: 0
# Processed by: cddbd v1.5.2PL0 Copyright (c) Steve Scherf et al.
# Submitted via: ExactAudioCopy v0.99pb4
#
DISCID=ba09f60d
DTITLE=Johanna Divine - Mile-High Rodeo
DYEAR=2011
DGENRE=Country
TTITLE0=Done 'Em In
TTITLE1=Hijacked Again
TTITLE2=Been Gone Awhile
TTITLE3=Lone Ranger
TTITLE4=Birdcage
TTITLE5=Used to Losin'
TTITLE6=Bright Side
TTITLE7=A Little Class
TTITLE8=The Big Grab
TTITLE9=Lulu Saint Marie
TTITLE10=Paddywagon
TTITLE11=Why Do Today
TTITLE12=Beelinin'
EXTD=
EXTT0=
EXTT1=
EXTT2=
EXTT3=
EXTT4=
EXTT5=
EXTT6=
EXTT7=
EXTT8=
EXTT9=
EXTT10=
EXTT11=
EXTT12=
PLAYORDER=
